<?xml version="1.0" encoding="utf-8"?>
<!-- Generator: Adobe Illustrator 19.0.0, SVG Export Plug-In . SVG Version: 6.00 Build 0)  -->
<svg version="1.1" id="Layer_1" xmlns="http://www.w3.org/2000/svg" xmlns:xlink="http://www.w3.org/1999/xlink" x="0px" y="0px"
	 viewBox="0 0 55 45" style="enable-background:new 0 0 55 45;" xml:space="preserve">
<style type="text/css">
	.st0{display:none;}
	.st1{fill:#FFFFFF;stroke:#000000;stroke-miterlimit:10;}
	.st2{fill:#FF0000;}
</style>
<g id="Layer_1_1_" class="st0">
	
		<image style="display:inline;overflow:visible;enable-background:new    ;" width="2448" height="2448" id="XMLID_1_" xlink:href="C86F048726B89D55.jpeg"  transform="matrix(2.073121e-02 0 0 2.073121e-02 6.25 -1)">
	</image>
</g>
<g id="Layer_4">
	<polygon id="XMLID_3_" class="st1" points="16.9,1.4 22.8,33.6 26.7,32.9 21.2,0.7 	"/>
</g>
<g id="Layer_3">
	<path id="XMLID_6_" class="st1" d="M16.9,41c0,0,5.8,3.1,15.6,1l6.6-24.8l-24.8-2L16.9,41z"/>
</g>
<g id="Layer_2">
	<path id="XMLID_2_" class="st1" d="M12.5,13.2c0,0,12-1.3,29,1l-1.9,4.7c0,0-17.2-2.8-25.8-1.2L12.5,13.2z"/>
</g>
<g id="Layer_5">
	<path id="XMLID_7_" class="st2" d="M19,18l1.1,23.5c0.1,0,1.8,0.3,2.7,0.5c1,0.3-0.4-24-0.4-24H19z"/>
	<path id="XMLID_8_" class="st2" d="M28.7,18.2l3.9,0.4L29,42c0,0-0.6,0.2-1.5,0S28.7,18.2,28.7,18.2z"/>
</g>
</svg>
